<svg width="1400" height="360" viewBox="0 0 1400 360" fill="none" xmlns="http://www.w3.org/2000/svg" role="img" aria-label="Stress Level Classifier project banner">
  <defs>
    <linearGradient id="bg" x1="0" y1="0" x2="1400" y2="360" gradientUnits="userSpaceOnUse">
      <stop stop-color="#0F172A"/>
      <stop offset="0.55" stop-color="#312E81"/>
      <stop offset="1" stop-color="#0E7490"/>
    </linearGradient>
    <radialGradient id="glow" cx="0" cy="0" r="1" gradientUnits="userSpaceOnUse" gradientTransform="translate(1120 85) rotate(128) scale(420 320)">
      <stop stop-color="#67E8F9" stop-opacity="0.35"/>
      <stop offset="1" stop-color="#67E8F9" stop-opacity="0"/>
    </radialGradient>
    <filter id="shadow" x="-20%" y="-20%" width="140%" height="140%">
      <feDropShadow dx="0" dy="18" stdDeviation="18" flood-color="#020617" flood-opacity="0.35"/>
    </filter>
  </defs>
  <rect width="1400" height="360" rx="36" fill="url(#bg)"/>
  <rect width="1400" height="360" rx="36" fill="url(#glow)"/>
  <circle cx="1220" cy="65" r="110" fill="#22D3EE" fill-opacity="0.13"/>
  <circle cx="1040" cy="310" r="170" fill="#A78BFA" fill-opacity="0.12"/>
  <path d="M92 278C205 150 302 257 420 146C527 44 647 72 748 141C835 200 912 196 984 139C1091 54 1211 104 1310 46" stroke="white" stroke-opacity="0.14" stroke-width="3"/>
  <g filter="url(#shadow)">
    <rect x="84" y="64" width="196" height="196" rx="42" fill="white" fill-opacity="0.10" stroke="white" stroke-opacity="0.20"/>
    <path d="M179 122c-34 0-61 27-61 61 0 15 5 29 14 40l-8 30 31-8c8 4 16 6 25 6 34 0 61-27 61-61s-28-68-62-68z" fill="#67E8F9" fill-opacity="0.22"/>
    <path d="M179 125c-28 0-51 22-51 50 0 12 4 23 11 32l-5 21 22-5c7 3 15 5 23 5 28 0 50-23 50-51s-22-52-50-52z" stroke="#E0F2FE" stroke-width="10" stroke-linecap="round" stroke-linejoin="round"/>
    <path d="M158 177h42M158 199h28" stroke="#E0F2FE" stroke-width="10" stroke-linecap="round"/>
  </g>
  <text x="330" y="132" fill="#F8FAFC" font-family="Inter, Segoe UI, Arial, sans-serif" font-size="54" font-weight="800">Stress Level Classifier</text>
  <text x="333" y="184" fill="#CFFAFE" font-family="Inter, Segoe UI, Arial, sans-serif" font-size="25" font-weight="500">TF-IDF + Machine Learning + Streamlit</text>
  <text x="333" y="233" fill="#E0E7FF" font-family="Inter, Segoe UI, Arial, sans-serif" font-size="22">Classifies text responses into Low, Medium, or High stress levels.</text>
  <g font-family="Inter, Segoe UI, Arial, sans-serif" font-size="18" font-weight="700">
    <rect x="333" y="260" width="88" height="38" rx="19" fill="#DCFCE7" fill-opacity="0.95"/>
    <text x="358" y="285" fill="#14532D">Low</text>
    <rect x="434" y="260" width="118" height="38" rx="19" fill="#FEF3C7" fill-opacity="0.95"/>
    <text x="457" y="285" fill="#78350F">Medium</text>
    <rect x="565" y="260" width="92" height="38" rx="19" fill="#FEE2E2" fill-opacity="0.95"/>
    <text x="590" y="285" fill="#7F1D1D">High</text>
  </g>
</svg>
